<svg width="14" height="13" viewBox="0 0 14 13" fill="none" xmlns="http://www.w3.org/2000/svg">
<path d="M9.35673 0.868554L13.5112 5.61101C13.7175 5.84679 13.8333 6.1664 13.8333 6.49964C13.8333 6.83288 13.7175 7.1525 13.5112 7.38828L9.35747 12.1316C9.15081 12.3675 8.87053 12.5 8.57828 12.5C8.28603 12.5 8.00575 12.3675 7.79909 12.1316C7.59244 11.8957 7.47634 11.5757 7.47634 11.2421C7.47634 10.9085 7.59244 10.5885 7.79909 10.3526L10.0728 7.75714H1.60158C1.30943 7.75714 1.02923 7.62466 0.822646 7.38883C0.616059 7.153 0.5 6.83315 0.5 6.49964C0.5 6.16613 0.616059 5.84628 0.822646 5.61046C1.02923 5.37463 1.30943 5.24214 1.60158 5.24214H10.0728L7.79983 2.64666C7.59327 2.41076 7.47727 2.09085 7.47734 1.75731C7.47741 1.42377 7.59354 1.10393 7.80019 0.868135C8.00685 0.632344 8.28709 0.499921 8.57927 0.5C8.87146 0.500079 9.15165 0.632652 9.3582 0.868554H9.35673Z" fill="#E6E6E6"/>
</svg>
