<svg width="16" height="17" viewBox="0 0 16 17" fill="none" xmlns="http://www.w3.org/2000/svg">
<path d="M15 15.5L12.2778 12.7778M11.8889 6.94444C11.8889 7.65942 11.7481 8.36739 11.4745 9.02794C11.2008 9.68849 10.7998 10.2887 10.2942 10.7942C9.78868 11.2998 9.18849 11.7008 8.52794 11.9745C7.86739 12.2481 7.15942 12.3889 6.44444 12.3889C5.72947 12.3889 5.0215 12.2481 4.36095 11.9745C3.7004 11.7008 3.1002 11.2998 2.59464 10.7942C2.08908 10.2887 1.68804 9.68849 1.41443 9.02794C1.14082 8.36739 1 7.65942 1 6.94444C1 5.50049 1.57361 4.11567 2.59464 3.09464C3.61567 2.07361 5.00049 1.5 6.44444 1.5C7.8884 1.5 9.27322 2.07361 10.2942 3.09464C11.3153 4.11567 11.8889 5.50049 11.8889 6.94444Z" stroke="#54566E" stroke-width="2" stroke-linecap="round"/>
</svg>
