<svg width="285" height="41" viewBox="0 0 285 41" fill="none" xmlns="http://www.w3.org/2000/svg">
<circle cx="20.5" cy="20.5" r="20.5" fill="#EFEEF5"/>
<path fill-rule="evenodd" clip-rule="evenodd" d="M21.6273 8.10486C21.6696 8.19843 21.693 8.2994 21.6962 8.40198C21.6993 8.50457 21.6821 8.60676 21.6455 8.70272C21.6089 8.79868 21.5538 8.88651 21.4831 8.96121C21.4124 9.03591 21.3276 9.09601 21.2336 9.13806C20.5467 9.44592 19.9634 9.94431 19.5534 10.5736C19.1434 11.203 18.9241 11.9366 18.9218 12.6867V12.714C18.9269 13.7109 19.3146 14.6682 20.0056 15.3895C20.6966 16.1109 21.6384 16.5417 22.6381 16.5937C23.6378 16.6457 24.6197 16.315 25.3824 15.6693C26.1451 15.0236 26.6309 14.1119 26.7403 13.1209C26.7625 12.9148 26.8659 12.726 27.0279 12.5958C27.1899 12.4657 27.3972 12.405 27.6041 12.427C27.8111 12.4491 28.0007 12.5521 28.1314 12.7134C28.2621 12.8748 28.323 13.0812 28.3009 13.2873C28.1804 14.4109 27.7117 15.4694 26.9599 16.3158C28.1167 16.576 29.1578 17.2024 29.9273 18.1011C29.9943 18.1791 30.0451 18.2694 30.077 18.367C30.1089 18.4646 30.1211 18.5674 30.1131 18.6697C30.105 18.772 30.0768 18.8717 30.0301 18.9631C29.9833 19.0546 29.919 19.1359 29.8407 19.2026C29.7623 19.2693 29.6716 19.3199 29.5736 19.3516C29.4757 19.3834 29.3724 19.3956 29.2697 19.3876C29.1669 19.3796 29.0668 19.3515 28.975 19.3049C28.8832 19.2584 28.8015 19.1943 28.7345 19.1163C28.0854 18.3559 27.1686 17.8718 26.1723 17.7636C25.176 17.6553 24.1759 17.9311 23.3774 18.5343C22.579 19.1374 22.0427 20.0222 21.8788 21.0068C21.7149 21.9914 21.9358 23.0011 22.4962 23.8286L22.5017 23.8348C22.5875 23.946 22.6417 24.0782 22.6585 24.2175C22.9197 24.2503 23.169 24.376 23.3549 24.5892C23.5337 24.7954 23.6963 25.0055 23.8427 25.2195C24.1273 25.6334 24.0897 26.1707 23.787 26.54C24.0217 26.535 24.252 26.6044 24.4445 26.7384C24.6369 26.8723 24.7816 27.0638 24.8574 27.2851C25.0221 27.7638 25.1492 28.2316 25.2574 28.6564C25.3085 28.8546 25.3031 29.0631 25.2419 29.2584C25.1807 29.4537 25.066 29.6282 24.9108 29.7623C25.2817 29.8154 25.6165 30.0536 25.7742 30.4214C25.9192 30.7595 26.0581 30.9243 26.1867 31.0149C26.3937 31.1602 26.5348 31.3632 26.6046 31.5866C26.7795 31.357 27.0446 31.1961 27.3551 31.1586C27.5224 31.1388 27.7104 31.1065 27.919 31.0618C28.2374 30.9923 28.5534 31.0672 28.7988 31.2422C28.8846 31.1204 29.0035 31.0256 29.1415 30.9688L29.3564 30.879C29.5534 30.7862 29.7295 30.6546 29.8742 30.4922C30.0188 30.3298 30.1289 30.14 30.1979 29.9341C30.3539 29.4655 30.3406 28.7861 29.8905 27.9169C29.841 27.8255 29.8102 27.7253 29.8001 27.622C29.7899 27.5187 29.8005 27.4145 29.8313 27.3153C29.8621 27.2162 29.9124 27.1241 29.9793 27.0446C30.0462 26.965 30.1283 26.8995 30.2209 26.8519C30.3135 26.8043 30.4147 26.7756 30.5186 26.7674C30.6225 26.7592 30.727 26.7717 30.826 26.8042C30.9249 26.8367 31.0164 26.8884 31.0951 26.9565C31.1737 27.0246 31.2379 27.1076 31.284 27.2007C31.6039 27.8177 31.7867 28.4237 31.8408 28.9985C32.4247 28.2967 32.8949 27.5083 33.2343 26.6619C33.2732 26.5669 33.3305 26.4804 33.4029 26.4074C33.4753 26.3345 33.5615 26.2764 33.6564 26.2366C33.7514 26.1968 33.8533 26.176 33.9563 26.1754C34.0594 26.1748 34.1615 26.1944 34.2569 26.2331C34.3523 26.2718 34.4391 26.3289 34.5124 26.401C34.5857 26.4732 34.644 26.559 34.684 26.6535C34.7239 26.7481 34.7448 26.8496 34.7454 26.9522C34.746 27.0548 34.7263 27.1565 34.6874 27.2515C34.1965 28.4503 33.5864 29.3679 32.999 30.0528C33.381 30.0973 33.7832 30.191 34.2177 30.3417C34.4142 30.4096 34.5757 30.5524 34.6665 30.7387C34.7573 30.9251 34.7701 31.1398 34.7019 31.3355C34.6338 31.5312 34.4904 31.692 34.3033 31.7824C34.1161 31.8729 33.9006 31.8856 33.704 31.8177C32.9238 31.5475 32.3693 31.5366 31.829 31.649C31.3256 31.7529 30.8307 31.9583 30.1398 32.2465L29.9932 32.3074C29.9028 32.3498 29.8104 32.3878 29.7164 32.4214C29.5572 32.4808 29.383 32.4871 29.22 32.4394C29.1655 32.6317 29.0595 32.8056 28.9133 32.9425C28.7672 33.0793 28.5864 33.174 28.3903 33.2164C28.1221 33.2747 27.8649 33.3187 27.6186 33.3484C27.3618 33.3794 27.1021 33.3197 26.8849 33.1797C26.6677 33.0397 26.5066 32.8283 26.4298 32.5823C26.2565 32.8105 26.0007 32.9626 25.7167 33.0064C25.4328 33.0501 25.1429 32.982 24.9084 32.8166C24.3226 32.4042 23.9729 31.8365 23.7376 31.2882C23.645 31.0736 23.6234 30.8352 23.6758 30.6075C23.7282 30.3798 23.852 30.1746 24.0293 30.0215C23.8121 29.9911 23.6089 29.8971 23.4455 29.7513C23.2821 29.6056 23.166 29.4148 23.1118 29.2031C23.0117 28.7977 22.8952 28.3965 22.7628 28.0004C22.7016 27.823 22.6869 27.633 22.7201 27.4483C22.7533 27.2637 22.8333 27.0906 22.9526 26.9454C22.7686 26.9493 22.5865 26.9074 22.4229 26.8236C22.2592 26.7397 22.1192 26.6165 22.0155 26.4651C21.9124 26.3148 21.8006 26.1706 21.6806 26.0332C21.5562 25.8904 21.4708 25.7181 21.4326 25.5329C21.3944 25.3477 21.4047 25.1559 21.4626 24.9758C21.3729 24.9197 21.2956 24.8461 21.2352 24.7595L21.2274 24.7462C20.8609 24.2786 20.3921 23.9004 19.8566 23.6406C19.3212 23.3807 18.7332 23.246 18.1376 23.2468C16.8829 23.2468 15.7662 23.8325 15.0478 24.7462C14.9946 24.8231 14.9394 24.8986 14.8824 24.9727C14.4477 25.6168 14.2156 26.3754 14.2158 27.1515C14.2158 27.8958 14.4244 28.5885 14.7859 29.1797C14.8899 29.3564 14.92 29.5667 14.8697 29.7654C14.8195 29.964 14.6928 30.135 14.5172 30.2416C14.3415 30.3481 14.1308 30.3816 13.9305 30.3349C13.7302 30.2882 13.5564 30.165 13.4465 29.9919C12.8391 29.0001 12.5662 27.8409 12.6678 26.6837C11.6395 27.1165 10.5035 27.2281 9.41017 27.0039C9.20645 26.9622 9.02772 26.8416 8.91331 26.6686C8.79889 26.4956 8.75815 26.2845 8.80006 26.0816C8.84197 25.8788 8.96309 25.7008 9.13678 25.5868C9.31046 25.4729 9.52249 25.4323 9.72621 25.474C9.98343 25.5271 10.249 25.554 10.523 25.5545C11.7777 25.5545 12.8944 24.9688 13.6127 24.0551C13.6661 23.9775 13.7212 23.902 13.7782 23.8286C14.3314 23.0096 14.5527 22.0124 14.3975 21.0376C14.2424 20.0627 13.7222 19.1826 12.9418 18.5742C12.1613 17.9658 11.1785 17.6743 10.1909 17.7584C9.20342 17.8424 8.2845 18.2958 7.61905 19.0273C7.47918 19.1806 7.28386 19.2724 7.07605 19.2824C6.86825 19.2923 6.66498 19.2197 6.51097 19.0804C6.35696 18.9411 6.26481 18.7466 6.25481 18.5396C6.24481 18.3327 6.31777 18.1303 6.45764 17.9769C7.21607 17.144 8.21395 16.5642 9.31528 16.3166C8.58842 15.4964 8.12538 14.4778 7.98606 13.3927C7.96297 13.1887 8.02147 12.9839 8.14889 12.8225C8.27631 12.6611 8.4624 12.5562 8.6669 12.5305C8.8714 12.5047 9.07787 12.5602 9.24163 12.6848C9.40538 12.8095 9.51326 12.9934 9.54192 13.1967C9.67039 14.1785 10.1685 15.0751 10.9356 15.7051C11.7027 16.3351 12.6814 16.6514 13.6737 16.5901C14.6661 16.5288 15.598 16.0944 16.281 15.3748C16.964 14.6552 17.347 13.7042 17.3526 12.714V12.6867C17.3503 11.9489 17.138 11.2268 16.7405 10.6041C16.343 9.98148 15.7765 9.48372 15.1066 9.16851C15.0135 9.12462 14.93 9.0629 14.8609 8.98686C14.7917 8.91083 14.7383 8.82198 14.7037 8.72539C14.669 8.62879 14.6538 8.52635 14.6589 8.4239C14.664 8.32144 14.6893 8.221 14.7334 8.12828C14.7774 8.03557 14.8394 7.95242 14.9158 7.88356C14.9921 7.8147 15.0813 7.7615 15.1783 7.72698C15.2753 7.69246 15.3782 7.67731 15.4811 7.68238C15.5839 7.68745 15.6848 7.71266 15.7779 7.75655C16.7573 8.21898 17.578 8.95865 18.1376 9.88309C18.715 8.9289 19.5703 8.17224 20.5898 7.7136C20.6837 7.67141 20.7851 7.64807 20.888 7.6449C20.991 7.64174 21.0936 7.65881 21.19 7.69514C21.2863 7.73148 21.3745 7.78636 21.4496 7.85666C21.5246 7.92697 21.585 8.0113 21.6273 8.10486ZM18.1376 20.5119C18.2946 20.5159 18.4508 20.4886 18.597 20.4316C18.7432 20.3745 18.8765 20.2889 18.9889 20.1798C19.1014 20.0706 19.1908 19.9402 19.2518 19.7961C19.3128 19.652 19.3443 19.4972 19.3443 19.3408C19.3443 19.1844 19.3128 19.0296 19.2518 18.8856C19.1908 18.7415 19.1014 18.611 18.9889 18.5019C18.8765 18.3927 18.7432 18.3071 18.597 18.2501C18.4508 18.1931 18.2946 18.1657 18.1376 18.1698C17.8256 18.1698 17.5264 18.2932 17.3058 18.5129C17.0852 18.7326 16.9613 19.0305 16.9613 19.3412C16.9613 19.6519 17.0852 19.9499 17.3058 20.1695C17.5264 20.3892 17.8256 20.5119 18.1376 20.5119Z" fill="#5159CF"/>
<path d="M59.104 32.82C57.952 32.82 56.848 32.6813 55.792 32.404C54.736 32.116 53.7707 31.6947 52.896 31.14C52.032 30.5747 51.3173 29.876 50.752 29.044C50.1867 28.2013 49.84 27.22 49.712 26.1H53.744C53.9147 26.8787 54.2507 27.5347 54.752 28.068C55.264 28.6013 55.9093 29.0067 56.688 29.284C57.4667 29.5613 58.336 29.7 59.296 29.7C60.1493 29.7 60.944 29.572 61.68 29.316C62.416 29.06 63.0133 28.6813 63.472 28.18C63.9307 27.668 64.16 27.0387 64.16 26.292C64.16 25.4493 63.8613 24.7933 63.264 24.324C62.6773 23.844 61.8347 23.4653 60.736 23.188L56.208 22.116C55.0347 21.8493 54.0107 21.46 53.136 20.948C52.272 20.436 51.6 19.764 51.12 18.932C50.64 18.0893 50.4 17.06 50.4 15.844C50.4 14.4573 50.7787 13.2573 51.536 12.244C52.304 11.2307 53.344 10.452 54.656 9.908C55.968 9.35333 57.4453 9.076 59.088 9.076C60.9653 9.076 62.5493 9.39067 63.84 10.02C65.1307 10.6387 66.112 11.4707 66.784 12.516C67.456 13.5613 67.7973 14.708 67.808 15.956H63.872C63.7867 15.028 63.5147 14.2973 63.056 13.764C62.5973 13.22 62.016 12.8253 61.312 12.58C60.608 12.3347 59.8293 12.212 58.976 12.212C57.4613 12.212 56.336 12.5373 55.6 13.188C54.864 13.8387 54.496 14.6013 54.496 15.476C54.496 16.2973 54.768 16.948 55.312 17.428C55.856 17.908 56.688 18.2813 57.808 18.548L62.112 19.556C63.552 19.8547 64.7093 20.3133 65.584 20.932C66.4587 21.5507 67.0933 22.2867 67.488 23.14C67.8933 23.9827 68.096 24.916 68.096 25.94C68.096 27.284 67.712 28.4733 66.944 29.508C66.1867 30.5427 65.136 31.3533 63.792 31.94C62.448 32.5267 60.8853 32.82 59.104 32.82ZM72.07 32.5V9.364H87.206L87.19 12.66H76.022V19.316H85.878V22.564H76.022V32.5H72.07ZM90.9338 32.5V9.364H94.7418L106.07 25.892V9.364H109.958V32.5H106.454L94.8218 15.524V32.5H90.9338ZM122.068 32.5V9.364H137.204L137.188 12.66H126.02V19.316H135.876V22.564H126.02V32.5H122.068ZM146.721 32.82C145.142 32.82 143.766 32.484 142.593 31.812C141.419 31.1293 140.507 30.1533 139.857 28.884C139.217 27.6147 138.897 26.0893 138.897 24.308C138.897 22.58 139.211 21.0653 139.841 19.764C140.47 18.4627 141.366 17.4493 142.529 16.724C143.702 15.9987 145.105 15.636 146.737 15.636C148.315 15.636 149.686 15.9827 150.849 16.676C152.011 17.3693 152.907 18.3613 153.537 19.652C154.177 20.9427 154.497 22.4947 154.497 24.308C154.497 25.9827 154.193 27.46 153.585 28.74C152.987 30.0093 152.107 31.0067 150.945 31.732C149.793 32.4573 148.385 32.82 146.721 32.82ZM146.737 29.86C147.633 29.86 148.369 29.6147 148.945 29.124C149.531 28.6333 149.969 27.9613 150.257 27.108C150.545 26.2547 150.689 25.284 150.689 24.196C150.689 23.1827 150.561 22.2493 150.305 21.396C150.049 20.5427 149.627 19.86 149.041 19.348C148.465 18.8253 147.697 18.564 146.737 18.564C145.83 18.564 145.078 18.804 144.481 19.284C143.894 19.7533 143.457 20.4147 143.169 21.268C142.881 22.1107 142.737 23.0867 142.737 24.196C142.737 25.1987 142.865 26.132 143.121 26.996C143.377 27.8493 143.798 28.5427 144.385 29.076C144.971 29.5987 145.755 29.86 146.737 29.86ZM163.564 32.82C162.754 32.82 161.97 32.7027 161.212 32.468C160.466 32.2227 159.794 31.8707 159.196 31.412C158.599 30.9427 158.124 30.3667 157.772 29.684C157.42 29.0013 157.244 28.2067 157.244 27.3V15.956H161.148V26.852C161.148 27.748 161.431 28.484 161.996 29.06C162.572 29.636 163.436 29.924 164.588 29.924C165.634 29.924 166.471 29.652 167.1 29.108C167.73 28.5533 168.044 27.7587 168.044 26.724V15.956H171.916V32.5H168.924L168.492 29.268C168.29 30.1747 167.932 30.8893 167.42 31.412C166.919 31.924 166.327 32.2867 165.644 32.5C164.972 32.7133 164.279 32.82 163.564 32.82ZM176.004 32.5V15.956H179.812V18.324C180.068 17.8973 180.415 17.4867 180.852 17.092C181.3 16.6973 181.85 16.3773 182.5 16.132C183.151 15.8867 183.914 15.764 184.788 15.764C185.812 15.764 186.762 15.9667 187.636 16.372C188.522 16.7773 189.231 17.412 189.764 18.276C190.308 19.14 190.58 20.2547 190.58 21.62V32.5H186.676V22.084C186.676 20.996 186.378 20.1907 185.78 19.668C185.183 19.1347 184.431 18.868 183.524 18.868C182.906 18.868 182.319 18.9747 181.764 19.188C181.21 19.3907 180.756 19.7053 180.404 20.132C180.063 20.548 179.892 21.0707 179.892 21.7V32.5H176.004ZM200.418 32.82C198.232 32.82 196.514 32.068 195.266 30.564C194.018 29.06 193.394 26.9213 193.394 24.148C193.394 22.42 193.645 20.9213 194.146 19.652C194.658 18.372 195.41 17.3853 196.402 16.692C197.394 15.988 198.616 15.636 200.066 15.636C200.749 15.636 201.368 15.7213 201.922 15.892C202.488 16.052 202.989 16.2653 203.426 16.532C203.864 16.7987 204.232 17.092 204.53 17.412C204.84 17.732 205.08 18.052 205.25 18.372V8.724H209.17V32.5H206.29L205.858 29.108C205.72 29.5027 205.522 29.9187 205.266 30.356C205.021 30.7827 204.685 31.1827 204.258 31.556C203.842 31.9293 203.32 32.2333 202.69 32.468C202.061 32.7027 201.304 32.82 200.418 32.82ZM201.218 29.956C202.616 29.956 203.634 29.5027 204.274 28.596C204.925 27.6787 205.25 26.164 205.25 24.052C205.24 22.8467 205.09 21.8333 204.802 21.012C204.525 20.1907 204.098 19.572 203.522 19.156C202.946 18.74 202.194 18.532 201.266 18.532C200.093 18.532 199.128 18.964 198.37 19.828C197.624 20.692 197.25 22.1 197.25 24.052C197.25 25.9933 197.597 27.4653 198.29 28.468C198.984 29.46 199.96 29.956 201.218 29.956ZM217.859 32.82C216.803 32.82 215.854 32.628 215.011 32.244C214.179 31.8493 213.523 31.2893 213.043 30.564C212.574 29.828 212.339 28.9373 212.339 27.892C212.339 26.068 212.995 24.692 214.307 23.764C215.63 22.836 217.731 22.3507 220.611 22.308L223.091 22.244V21.124C223.091 20.2493 222.83 19.5667 222.307 19.076C221.795 18.5747 220.995 18.3293 219.907 18.34C219.097 18.3507 218.361 18.5427 217.699 18.916C217.038 19.2787 216.601 19.892 216.387 20.756H213.075C213.139 19.6253 213.465 18.6813 214.051 17.924C214.649 17.156 215.465 16.5853 216.499 16.212C217.534 15.828 218.729 15.636 220.083 15.636C221.662 15.636 222.947 15.844 223.939 16.26C224.931 16.676 225.662 17.2787 226.131 18.068C226.601 18.8467 226.835 19.7907 226.835 20.9V32.5H223.555L223.235 29.524C222.649 30.772 221.897 31.636 220.979 32.116C220.073 32.5853 219.033 32.82 217.859 32.82ZM219.123 30.18C219.603 30.18 220.078 30.0947 220.547 29.924C221.017 29.7427 221.438 29.5027 221.811 29.204C222.195 28.8947 222.499 28.5533 222.723 28.18C222.958 27.8067 223.081 27.4173 223.091 27.012V24.404L221.059 24.436C220.057 24.4467 219.177 24.5533 218.419 24.756C217.673 24.9587 217.091 25.284 216.675 25.732C216.259 26.1693 216.051 26.756 216.051 27.492C216.051 28.3347 216.345 28.996 216.931 29.476C217.518 29.9453 218.249 30.18 219.123 30.18ZM236.485 32.628C235.173 32.628 234.155 32.4573 233.429 32.116C232.715 31.764 232.219 31.268 231.941 30.628C231.664 29.988 231.525 29.2253 231.525 28.34V18.708H228.837V15.956H231.637L232.613 11.044H235.413V15.94H239.109V18.708H235.413L235.429 28.196C235.429 28.6867 235.483 29.0493 235.589 29.284C235.707 29.508 235.888 29.6573 236.133 29.732C236.389 29.796 236.725 29.828 237.141 29.828H239.189V32.292C238.965 32.3773 238.635 32.452 238.197 32.516C237.771 32.5907 237.2 32.628 236.485 32.628ZM242.367 32.5V15.956H246.095V32.5H242.367ZM242.303 13.06V9.38H246.159V13.06H242.303ZM257.017 32.82C255.438 32.82 254.062 32.484 252.889 31.812C251.716 31.1293 250.804 30.1533 250.153 28.884C249.513 27.6147 249.193 26.0893 249.193 24.308C249.193 22.58 249.508 21.0653 250.137 19.764C250.766 18.4627 251.662 17.4493 252.825 16.724C253.998 15.9987 255.401 15.636 257.033 15.636C258.612 15.636 259.982 15.9827 261.145 16.676C262.308 17.3693 263.204 18.3613 263.833 19.652C264.473 20.9427 264.793 22.4947 264.793 24.308C264.793 25.9827 264.489 27.46 263.881 28.74C263.284 30.0093 262.404 31.0067 261.241 31.732C260.089 32.4573 258.681 32.82 257.017 32.82ZM257.033 29.86C257.929 29.86 258.665 29.6147 259.241 29.124C259.828 28.6333 260.265 27.9613 260.553 27.108C260.841 26.2547 260.985 25.284 260.985 24.196C260.985 23.1827 260.857 22.2493 260.601 21.396C260.345 20.5427 259.924 19.86 259.337 19.348C258.761 18.8253 257.993 18.564 257.033 18.564C256.126 18.564 255.374 18.804 254.777 19.284C254.19 19.7533 253.753 20.4147 253.465 21.268C253.177 22.1107 253.033 23.0867 253.033 24.196C253.033 25.1987 253.161 26.132 253.417 26.996C253.673 27.8493 254.094 28.5427 254.681 29.076C255.268 29.5987 256.052 29.86 257.033 29.86ZM267.874 32.5V15.956H271.682V18.324C271.938 17.8973 272.285 17.4867 272.722 17.092C273.17 16.6973 273.72 16.3773 274.37 16.132C275.021 15.8867 275.784 15.764 276.658 15.764C277.682 15.764 278.632 15.9667 279.506 16.372C280.392 16.7773 281.101 17.412 281.634 18.276C282.178 19.14 282.45 20.2547 282.45 21.62V32.5H278.546V22.084C278.546 20.996 278.248 20.1907 277.65 19.668C277.053 19.1347 276.301 18.868 275.394 18.868C274.776 18.868 274.189 18.9747 273.634 19.188C273.08 19.3907 272.626 19.7053 272.274 20.132C271.933 20.548 271.762 21.0707 271.762 21.7V32.5H267.874Z" fill="#EFEEF5"/>
</svg>
