<svg width="285" height="41" viewBox="0 0 285 41" fill="none" xmlns="http://www.w3.org/2000/svg">
<circle cx="20.5" cy="20.5" r="20.5" fill="#5159CF"/>
<path fill-rule="evenodd" clip-rule="evenodd" d="M21.6273 8.10486C21.6696 8.19843 21.693 8.2994 21.6962 8.40198C21.6993 8.50457 21.6821 8.60676 21.6455 8.70272C21.6089 8.79868 21.5538 8.88651 21.4831 8.96121C21.4124 9.03591 21.3276 9.09601 21.2336 9.13806C20.5467 9.44592 19.9634 9.94431 19.5534 10.5736C19.1434 11.203 18.9241 11.9366 18.9218 12.6867V12.714C18.9269 13.7109 19.3146 14.6682 20.0056 15.3895C20.6966 16.1109 21.6384 16.5417 22.6381 16.5937C23.6378 16.6457 24.6197 16.315 25.3824 15.6693C26.1451 15.0236 26.6309 14.1119 26.7403 13.1209C26.7625 12.9148 26.8659 12.726 27.0279 12.5958C27.1899 12.4657 27.3972 12.405 27.6041 12.427C27.8111 12.4491 28.0007 12.5521 28.1314 12.7134C28.2621 12.8748 28.323 13.0812 28.3009 13.2873C28.1804 14.4109 27.7117 15.4694 26.9599 16.3158C28.1167 16.576 29.1578 17.2024 29.9273 18.1011C29.9943 18.1791 30.0451 18.2694 30.077 18.367C30.1089 18.4646 30.1211 18.5674 30.1131 18.6697C30.105 18.772 30.0768 18.8717 30.0301 18.9631C29.9833 19.0546 29.919 19.1359 29.8407 19.2026C29.7623 19.2693 29.6716 19.3199 29.5736 19.3516C29.4757 19.3834 29.3724 19.3956 29.2697 19.3876C29.1669 19.3796 29.0668 19.3515 28.975 19.3049C28.8832 19.2584 28.8015 19.1943 28.7345 19.1163C28.0854 18.3559 27.1686 17.8718 26.1723 17.7636C25.176 17.6553 24.1759 17.9311 23.3774 18.5343C22.579 19.1374 22.0427 20.0222 21.8788 21.0068C21.7149 21.9914 21.9358 23.0011 22.4962 23.8286L22.5017 23.8348C22.5875 23.946 22.6417 24.0782 22.6585 24.2175C22.9197 24.2503 23.169 24.376 23.3549 24.5892C23.5337 24.7954 23.6963 25.0055 23.8427 25.2195C24.1273 25.6334 24.0897 26.1707 23.787 26.54C24.0217 26.535 24.252 26.6044 24.4445 26.7384C24.6369 26.8723 24.7816 27.0638 24.8574 27.2851C25.0221 27.7638 25.1492 28.2316 25.2574 28.6564C25.3085 28.8546 25.3031 29.0631 25.2419 29.2584C25.1807 29.4537 25.066 29.6282 24.9108 29.7623C25.2817 29.8154 25.6165 30.0536 25.7742 30.4214C25.9192 30.7595 26.0581 30.9243 26.1867 31.0149C26.3937 31.1602 26.5348 31.3632 26.6046 31.5866C26.7795 31.357 27.0446 31.1961 27.3551 31.1586C27.5224 31.1388 27.7104 31.1065 27.919 31.0618C28.2374 30.9923 28.5534 31.0672 28.7988 31.2422C28.8846 31.1204 29.0035 31.0256 29.1415 30.9688L29.3564 30.879C29.5534 30.7862 29.7295 30.6546 29.8742 30.4922C30.0188 30.3298 30.1289 30.14 30.1979 29.9341C30.3539 29.4655 30.3406 28.7861 29.8905 27.9169C29.841 27.8255 29.8102 27.7253 29.8001 27.622C29.7899 27.5187 29.8005 27.4145 29.8313 27.3153C29.8621 27.2162 29.9124 27.1241 29.9793 27.0446C30.0462 26.965 30.1283 26.8995 30.2209 26.8519C30.3135 26.8043 30.4147 26.7756 30.5186 26.7674C30.6225 26.7592 30.727 26.7717 30.826 26.8042C30.9249 26.8367 31.0164 26.8884 31.0951 26.9565C31.1737 27.0246 31.2379 27.1076 31.284 27.2007C31.6039 27.8177 31.7867 28.4237 31.8408 28.9985C32.4247 28.2967 32.8949 27.5083 33.2343 26.6619C33.2732 26.5669 33.3305 26.4804 33.4029 26.4074C33.4753 26.3345 33.5615 26.2764 33.6564 26.2366C33.7514 26.1968 33.8533 26.176 33.9563 26.1754C34.0594 26.1748 34.1615 26.1944 34.2569 26.2331C34.3523 26.2718 34.4391 26.3289 34.5124 26.401C34.5857 26.4732 34.644 26.559 34.684 26.6535C34.7239 26.7481 34.7448 26.8496 34.7454 26.9522C34.746 27.0548 34.7263 27.1565 34.6874 27.2515C34.1965 28.4503 33.5864 29.3679 32.999 30.0528C33.381 30.0973 33.7832 30.191 34.2177 30.3417C34.4142 30.4096 34.5757 30.5524 34.6665 30.7387C34.7573 30.9251 34.7701 31.1398 34.7019 31.3355C34.6338 31.5312 34.4904 31.692 34.3033 31.7824C34.1161 31.8729 33.9006 31.8856 33.704 31.8177C32.9238 31.5475 32.3693 31.5366 31.829 31.649C31.3256 31.7529 30.8307 31.9583 30.1398 32.2465L29.9932 32.3074C29.9028 32.3498 29.8104 32.3878 29.7164 32.4214C29.5572 32.4808 29.383 32.4871 29.22 32.4394C29.1655 32.6317 29.0595 32.8056 28.9133 32.9425C28.7672 33.0793 28.5864 33.174 28.3903 33.2164C28.1221 33.2747 27.8649 33.3187 27.6186 33.3484C27.3618 33.3794 27.1021 33.3197 26.8849 33.1797C26.6677 33.0397 26.5066 32.8283 26.4298 32.5823C26.2565 32.8105 26.0007 32.9626 25.7167 33.0064C25.4328 33.0501 25.1429 32.982 24.9084 32.8166C24.3226 32.4042 23.9729 31.8365 23.7376 31.2882C23.645 31.0736 23.6234 30.8352 23.6758 30.6075C23.7282 30.3798 23.852 30.1746 24.0293 30.0215C23.8121 29.9911 23.6089 29.8971 23.4455 29.7513C23.2821 29.6056 23.166 29.4148 23.1118 29.2031C23.0117 28.7977 22.8952 28.3965 22.7628 28.0004C22.7016 27.823 22.6869 27.633 22.7201 27.4483C22.7533 27.2637 22.8333 27.0906 22.9526 26.9454C22.7686 26.9493 22.5865 26.9074 22.4229 26.8236C22.2592 26.7397 22.1192 26.6165 22.0155 26.4651C21.9124 26.3148 21.8006 26.1706 21.6806 26.0332C21.5562 25.8904 21.4708 25.7181 21.4326 25.5329C21.3944 25.3477 21.4047 25.1559 21.4626 24.9758C21.3729 24.9197 21.2956 24.8461 21.2352 24.7595L21.2274 24.7462C20.8609 24.2786 20.3921 23.9004 19.8566 23.6406C19.3212 23.3807 18.7332 23.246 18.1376 23.2468C16.8829 23.2468 15.7662 23.8325 15.0478 24.7462C14.9946 24.8231 14.9394 24.8986 14.8824 24.9727C14.4477 25.6168 14.2156 26.3754 14.2158 27.1515C14.2158 27.8958 14.4244 28.5885 14.7859 29.1797C14.8899 29.3564 14.92 29.5667 14.8697 29.7654C14.8195 29.964 14.6928 30.135 14.5172 30.2416C14.3415 30.3481 14.1308 30.3816 13.9305 30.3349C13.7302 30.2882 13.5564 30.165 13.4465 29.9919C12.8391 29.0001 12.5662 27.8409 12.6678 26.6837C11.6395 27.1165 10.5035 27.2281 9.41017 27.0039C9.20645 26.9622 9.02772 26.8416 8.91331 26.6686C8.79889 26.4956 8.75815 26.2845 8.80006 26.0816C8.84197 25.8787 8.96309 25.7008 9.13678 25.5868C9.31046 25.4729 9.52249 25.4323 9.72621 25.474C9.98343 25.5271 10.249 25.554 10.523 25.5545C11.7777 25.5545 12.8944 24.9688 13.6127 24.0551C13.6661 23.9775 13.7212 23.902 13.7782 23.8286C14.3314 23.0096 14.5527 22.0124 14.3975 21.0376C14.2424 20.0627 13.7222 19.1826 12.9418 18.5742C12.1613 17.9658 11.1785 17.6743 10.1909 17.7584C9.20342 17.8424 8.2845 18.2958 7.61905 19.0273C7.47918 19.1806 7.28386 19.2724 7.07605 19.2824C6.86825 19.2923 6.66498 19.2197 6.51097 19.0804C6.35696 18.9411 6.26481 18.7466 6.25481 18.5396C6.24481 18.3327 6.31777 18.1303 6.45764 17.9769C7.21607 17.144 8.21395 16.5642 9.31528 16.3166C8.58842 15.4964 8.12538 14.4778 7.98606 13.3927C7.96297 13.1887 8.02147 12.9839 8.14889 12.8225C8.27631 12.6611 8.4624 12.5562 8.6669 12.5305C8.8714 12.5047 9.07787 12.5602 9.24163 12.6848C9.40538 12.8095 9.51326 12.9934 9.54192 13.1967C9.67039 14.1785 10.1685 15.0751 10.9356 15.7051C11.7027 16.3351 12.6814 16.6514 13.6737 16.5901C14.6661 16.5288 15.598 16.0944 16.281 15.3748C16.964 14.6552 17.347 13.7042 17.3526 12.714V12.6867C17.3503 11.9489 17.138 11.2268 16.7405 10.6041C16.343 9.98148 15.7765 9.48372 15.1066 9.16851C15.0135 9.12462 14.93 9.0629 14.8609 8.98686C14.7917 8.91083 14.7383 8.82198 14.7037 8.72539C14.669 8.62879 14.6538 8.52635 14.6589 8.4239C14.664 8.32144 14.6893 8.221 14.7334 8.12828C14.7774 8.03557 14.8394 7.95242 14.9158 7.88356C14.9921 7.8147 15.0813 7.7615 15.1783 7.72698C15.2753 7.69246 15.3782 7.67731 15.4811 7.68238C15.584 7.68745 15.6848 7.71266 15.7779 7.75655C16.7573 8.21898 17.578 8.95865 18.1376 9.88309C18.715 8.9289 19.5703 8.17224 20.5898 7.7136C20.6837 7.67141 20.7851 7.64807 20.888 7.6449C20.991 7.64174 21.0936 7.65881 21.19 7.69514C21.2863 7.73148 21.3745 7.78636 21.4496 7.85666C21.5246 7.92697 21.585 8.0113 21.6273 8.10486ZM18.1376 20.5119C18.2946 20.5159 18.4508 20.4886 18.597 20.4316C18.7432 20.3745 18.8765 20.2889 18.9889 20.1798C19.1014 20.0706 19.1908 19.9402 19.2518 19.7961C19.3128 19.652 19.3443 19.4972 19.3443 19.3408C19.3443 19.1844 19.3128 19.0296 19.2518 18.8856C19.1908 18.7415 19.1014 18.611 18.9889 18.5019C18.8765 18.3927 18.7432 18.3071 18.597 18.2501C18.4508 18.1931 18.2946 18.1657 18.1376 18.1698C17.8256 18.1698 17.5264 18.2932 17.3058 18.5129C17.0852 18.7326 16.9613 19.0305 16.9613 19.3412C16.9613 19.6519 17.0852 19.9499 17.3058 20.1695C17.5264 20.3892 17.8256 20.5119 18.1376 20.5119Z" fill="#E6E6E6"/>
<path d="M59.264 32.82C58.112 32.82 56.9867 32.676 55.888 32.388C54.7893 32.1 53.7867 31.668 52.88 31.092C51.9733 30.516 51.2267 29.796 50.64 28.932C50.064 28.068 49.7173 27.0547 49.6 25.892H54.384C54.544 26.596 54.848 27.188 55.296 27.668C55.7547 28.148 56.3413 28.516 57.056 28.772C57.7813 29.028 58.608 29.156 59.536 29.156C60.272 29.156 60.9707 29.0493 61.632 28.836C62.2933 28.6227 62.832 28.2973 63.248 27.86C63.664 27.4227 63.872 26.8733 63.872 26.212C63.872 25.4227 63.584 24.8307 63.008 24.436C62.432 24.0307 61.648 23.7107 60.656 23.476L56.32 22.532C55.0933 22.276 54.0213 21.8813 53.104 21.348C52.1973 20.804 51.4987 20.1 51.008 19.236C50.5173 18.3613 50.272 17.3 50.272 16.052C50.272 14.612 50.6667 13.3693 51.456 12.324C52.256 11.2787 53.3387 10.4787 54.704 9.924C56.08 9.35867 57.6213 9.076 59.328 9.076C61.2587 9.076 62.8853 9.39067 64.208 10.02C65.5413 10.6387 66.56 11.4813 67.264 12.548C67.968 13.604 68.3253 14.7827 68.336 16.084H63.664C63.5787 15.284 63.3333 14.644 62.928 14.164C62.5227 13.6733 62 13.3213 61.36 13.108C60.7307 12.884 60.0107 12.772 59.2 12.772C57.8027 12.772 56.784 13.0547 56.144 13.62C55.504 14.1853 55.184 14.8413 55.184 15.588C55.184 16.292 55.424 16.8627 55.904 17.3C56.3947 17.7267 57.1787 18.052 58.256 18.276L62.272 19.14C63.7653 19.428 64.976 19.8867 65.904 20.516C66.832 21.1347 67.5093 21.8867 67.936 22.772C68.3627 23.6573 68.576 24.6493 68.576 25.748C68.576 27.1453 68.176 28.3773 67.376 29.444C66.5867 30.5 65.4933 31.3267 64.096 31.924C62.6987 32.5213 61.088 32.82 59.264 32.82ZM72.237 32.5V9.364H87.981L87.965 13.268H76.941V19.076H86.493V22.9H76.941V32.5H72.237ZM91.382 32.5V9.364H96.006L106.566 24.676V9.364H111.238V32.5H107.03L96.038 16.58V32.5H91.382Z" fill="#54566E"/>
<path d="M123.258 32.5V9.364H138.042L138.026 12.308H126.746V19.46H136.778V22.372H126.746V32.5H123.258ZM147.579 32.82C146.032 32.82 144.683 32.4893 143.531 31.828C142.379 31.156 141.483 30.1853 140.843 28.916C140.203 27.6467 139.883 26.1107 139.883 24.308C139.883 22.5693 140.187 21.0493 140.795 19.748C141.403 18.4467 142.278 17.4387 143.419 16.724C144.571 15.9987 145.963 15.636 147.595 15.636C149.152 15.636 150.502 15.9773 151.643 16.66C152.784 17.332 153.67 18.3187 154.299 19.62C154.928 20.9107 155.243 22.4733 155.243 24.308C155.243 25.9827 154.95 27.46 154.363 28.74C153.776 30.02 152.912 31.0227 151.771 31.748C150.64 32.4627 149.243 32.82 147.579 32.82ZM147.595 30.18C148.544 30.18 149.334 29.9347 149.963 29.444C150.592 28.9427 151.067 28.244 151.387 27.348C151.707 26.4413 151.867 25.396 151.867 24.212C151.867 23.1133 151.723 22.116 151.435 21.22C151.158 20.3133 150.704 19.5933 150.075 19.06C149.456 18.5267 148.63 18.26 147.595 18.26C146.646 18.26 145.846 18.5053 145.195 18.996C144.555 19.476 144.075 20.164 143.755 21.06C143.435 21.9453 143.275 22.996 143.275 24.212C143.275 25.2893 143.419 26.2813 143.707 27.188C143.995 28.0947 144.454 28.82 145.083 29.364C145.723 29.908 146.56 30.18 147.595 30.18ZM164.52 32.82C163.688 32.8093 162.893 32.6867 162.136 32.452C161.379 32.2173 160.701 31.8653 160.104 31.396C159.517 30.9267 159.048 30.3453 158.696 29.652C158.355 28.9587 158.184 28.1533 158.184 27.236V15.956H161.624V26.868C161.624 27.86 161.933 28.6653 162.552 29.284C163.171 29.9027 164.104 30.212 165.352 30.212C166.483 30.212 167.389 29.9187 168.072 29.332C168.755 28.7347 169.096 27.8653 169.096 26.724V15.956H172.504V32.5H169.848L169.464 29.3C169.272 30.164 168.925 30.8573 168.424 31.38C167.933 31.892 167.347 32.2653 166.664 32.5C165.992 32.724 165.277 32.8307 164.52 32.82ZM176.866 32.5V15.956H180.21V18.34C180.477 17.892 180.834 17.4707 181.282 17.076C181.741 16.6813 182.301 16.3613 182.962 16.116C183.634 15.8707 184.408 15.748 185.282 15.748C186.317 15.748 187.272 15.956 188.146 16.372C189.032 16.7773 189.741 17.4173 190.274 18.292C190.808 19.156 191.074 20.276 191.074 21.652V32.5H187.65V22.02C187.65 20.836 187.33 19.956 186.69 19.38C186.061 18.804 185.245 18.516 184.242 18.516C183.57 18.516 182.93 18.628 182.322 18.852C181.714 19.076 181.224 19.4173 180.85 19.876C180.477 20.324 180.29 20.8893 180.29 21.572V32.5H176.866ZM201.076 32.82C198.911 32.82 197.199 32.0787 195.94 30.596C194.692 29.1027 194.068 26.9533 194.068 24.148C194.068 22.4307 194.319 20.9373 194.82 19.668C195.332 18.388 196.084 17.396 197.076 16.692C198.068 15.988 199.305 15.636 200.788 15.636C201.524 15.636 202.185 15.7267 202.772 15.908C203.359 16.0893 203.871 16.324 204.308 16.612C204.745 16.9 205.113 17.2093 205.412 17.54C205.711 17.8707 205.935 18.18 206.084 18.468V8.724H209.54V32.5H206.964L206.58 29.108C206.463 29.4707 206.281 29.8653 206.036 30.292C205.801 30.7187 205.471 31.124 205.044 31.508C204.628 31.892 204.095 32.2067 203.444 32.452C202.793 32.6973 202.004 32.82 201.076 32.82ZM201.732 30.244C203.268 30.244 204.377 29.764 205.06 28.804C205.743 27.8333 206.084 26.244 206.084 24.036C206.073 22.788 205.919 21.732 205.62 20.868C205.332 20.004 204.873 19.3533 204.244 18.916C203.625 18.468 202.809 18.244 201.796 18.244C200.527 18.244 199.487 18.7027 198.676 19.62C197.876 20.5267 197.476 21.9987 197.476 24.036C197.476 26.0413 197.839 27.5773 198.564 28.644C199.3 29.7107 200.356 30.244 201.732 30.244ZM218.407 32.82C217.341 32.82 216.391 32.628 215.559 32.244C214.738 31.86 214.093 31.3053 213.623 30.58C213.154 29.8547 212.919 28.98 212.919 27.956C212.919 26.1213 213.565 24.7507 214.855 23.844C216.157 22.9373 218.237 22.4573 221.095 22.404L223.815 22.324V21.124C223.815 20.1747 223.533 19.428 222.967 18.884C222.402 18.34 221.527 18.0733 220.343 18.084C219.469 18.084 218.685 18.2867 217.991 18.692C217.298 19.0973 216.845 19.764 216.631 20.692H213.671C213.735 19.5933 214.05 18.6707 214.615 17.924C215.191 17.1667 215.981 16.596 216.983 16.212C217.986 15.828 219.159 15.636 220.503 15.636C222.018 15.636 223.261 15.844 224.231 16.26C225.202 16.6653 225.922 17.2627 226.391 18.052C226.871 18.8413 227.111 19.8013 227.111 20.932V32.5H224.199L223.943 29.46C223.325 30.7293 222.541 31.6093 221.591 32.1C220.642 32.58 219.581 32.82 218.407 32.82ZM219.479 30.436C220.002 30.436 220.519 30.3453 221.031 30.164C221.543 29.972 222.007 29.716 222.423 29.396C222.839 29.0653 223.17 28.6973 223.415 28.292C223.671 27.8867 223.805 27.4707 223.815 27.044V24.308L221.575 24.356C220.434 24.3667 219.463 24.484 218.663 24.708C217.874 24.932 217.266 25.2787 216.839 25.748C216.423 26.2173 216.215 26.8413 216.215 27.62C216.215 28.5053 216.519 29.1987 217.127 29.7C217.746 30.1907 218.53 30.436 219.479 30.436ZM236.684 32.612C235.458 32.612 234.508 32.4467 233.836 32.116C233.164 31.7853 232.695 31.3107 232.428 30.692C232.162 30.0627 232.028 29.3053 232.028 28.42V18.42H229.34V15.956H232.14L232.972 11.092H235.468V15.94H239.18V18.42H235.468L235.484 28.292C235.484 28.836 235.538 29.236 235.644 29.492C235.762 29.7373 235.954 29.8973 236.22 29.972C236.498 30.036 236.871 30.068 237.34 30.068H239.26V32.292C239.058 32.3773 238.743 32.452 238.316 32.516C237.9 32.58 237.356 32.612 236.684 32.612ZM242.62 32.5V15.956H245.916V32.5H242.62ZM242.54 12.756V9.38H245.98V12.756H242.54ZM256.938 32.82C255.391 32.82 254.042 32.4893 252.89 31.828C251.738 31.156 250.842 30.1853 250.202 28.916C249.562 27.6467 249.242 26.1107 249.242 24.308C249.242 22.5693 249.546 21.0493 250.154 19.748C250.762 18.4467 251.636 17.4387 252.778 16.724C253.93 15.9987 255.322 15.636 256.954 15.636C258.511 15.636 259.86 15.9773 261.002 16.66C262.143 17.332 263.028 18.3187 263.658 19.62C264.287 20.9107 264.602 22.4733 264.602 24.308C264.602 25.9827 264.308 27.46 263.722 28.74C263.135 30.02 262.271 31.0227 261.13 31.748C259.999 32.4627 258.602 32.82 256.938 32.82ZM256.954 30.18C257.903 30.18 258.692 29.9347 259.322 29.444C259.951 28.9427 260.426 28.244 260.746 27.348C261.066 26.4413 261.226 25.396 261.226 24.212C261.226 23.1133 261.082 22.116 260.794 21.22C260.516 20.3133 260.063 19.5933 259.434 19.06C258.815 18.5267 257.988 18.26 256.954 18.26C256.004 18.26 255.204 18.5053 254.554 18.996C253.914 19.476 253.434 20.164 253.114 21.06C252.794 21.9453 252.634 22.996 252.634 24.212C252.634 25.2893 252.778 26.2813 253.066 27.188C253.354 28.0947 253.812 28.82 254.442 29.364C255.082 29.908 255.919 30.18 256.954 30.18ZM267.861 32.5V15.956H271.205V18.34C271.472 17.892 271.829 17.4707 272.277 17.076C272.736 16.6813 273.296 16.3613 273.957 16.116C274.629 15.8707 275.403 15.748 276.277 15.748C277.312 15.748 278.267 15.956 279.141 16.372C280.027 16.7773 280.736 17.4173 281.269 18.292C281.803 19.156 282.069 20.276 282.069 21.652V32.5H278.645V22.02C278.645 20.836 278.325 19.956 277.685 19.38C277.056 18.804 276.24 18.516 275.237 18.516C274.565 18.516 273.925 18.628 273.317 18.852C272.709 19.076 272.219 19.4173 271.845 19.876C271.472 20.324 271.285 20.8893 271.285 21.572V32.5H267.861Z" fill="#5159CF"/>
</svg>
