<svg xmlns="http://www.w3.org/2000/svg" viewBox="0 0 282.07 41"><defs><style>.cls-1{fill:#5159cf;}.cls-2{fill:#fbf8f8;fill-rule:evenodd;}.cls-3{fill:#54566e;}</style></defs><title>Asset 3</title><g id="Layer_2" data-name="Layer 2"><g id="Layer_1-2" data-name="Layer 1"><circle class="cls-1" cx="20.5" cy="20.5" r="20.5"/><path class="cls-2" d="M21.63,8.1a1.09,1.09,0,0,1,.07.3,1,1,0,0,1-.05.3.78.78,0,0,1-.17.26.64.64,0,0,1-.25.18,4,4,0,0,0-1.68,1.43,3.9,3.9,0,0,0-.63,2.12v0a3.92,3.92,0,0,0,7.82.41A.76.76,0,0,1,27,12.6a.75.75,0,0,1,.57-.17.77.77,0,0,1,.53.28.8.8,0,0,1,.17.58,5.47,5.47,0,0,1-1.34,3,5.47,5.47,0,0,1,3,1.78.89.89,0,0,1,.15.27.75.75,0,0,1,0,.3A.74.74,0,0,1,30,19a.75.75,0,0,1-.19.24.72.72,0,0,1-.27.15A.7.7,0,0,1,29,19.3a.76.76,0,0,1-.25-.18,3.91,3.91,0,0,0-2.56-1.36,4,4,0,0,0-2.79.77,3.9,3.9,0,0,0-.88,5.3h0a.83.83,0,0,1,.16.39,1.08,1.08,0,0,1,.69.37,6.73,6.73,0,0,1,.49.63,1.09,1.09,0,0,1-.05,1.32,1,1,0,0,1,.65.2,1.05,1.05,0,0,1,.42.55c.16.47.29.94.4,1.37a1.12,1.12,0,0,1,0,.6,1,1,0,0,1-.33.5,1.1,1.1,0,0,1,.86.66,1.32,1.32,0,0,0,.42.59,1.13,1.13,0,0,1,.41.58,1.13,1.13,0,0,1,.76-.43,5.18,5.18,0,0,0,.56-.1,1.13,1.13,0,0,1,.88.18.76.76,0,0,1,.34-.27l.22-.09a1.61,1.61,0,0,0,.51-.39,1.51,1.51,0,0,0,.33-.56,2.62,2.62,0,0,0-.31-2,.79.79,0,0,1-.06-.6A.76.76,0,0,1,30,27a1.12,1.12,0,0,1,.24-.19.74.74,0,0,1,.3-.08.82.82,0,0,1,.31,0,1.07,1.07,0,0,1,.27.16.72.72,0,0,1,.18.24,4.85,4.85,0,0,1,.56,1.8,8.78,8.78,0,0,0,1.39-2.34.85.85,0,0,1,.17-.25.81.81,0,0,1,.56-.23.63.63,0,0,1,.3.05.85.85,0,0,1,.25.17.7.7,0,0,1,.17.25,1.09,1.09,0,0,1,.07.3.77.77,0,0,1-.06.3A10,10,0,0,1,33,30.05a6.28,6.28,0,0,1,1.22.29.8.8,0,0,1,.45.4.79.79,0,0,1-1,1.08,3.32,3.32,0,0,0-1.87-.17,9.21,9.21,0,0,0-1.69.6l-.15.06-.27.11a.78.78,0,0,1-.5,0,1,1,0,0,1-.31.5,1.1,1.1,0,0,1-.52.28c-.27.05-.53.1-.77.13a1.1,1.1,0,0,1-1.19-.77,1.13,1.13,0,0,1-.71.43,1.15,1.15,0,0,1-.81-.19,3.45,3.45,0,0,1-1.17-1.53A1.12,1.12,0,0,1,24,30a1,1,0,0,1-.58-.27,1.09,1.09,0,0,1-.34-.55c-.1-.4-.21-.8-.35-1.2a1.15,1.15,0,0,1,0-.55A1,1,0,0,1,23,27a1.12,1.12,0,0,1-.53-.13,1,1,0,0,1-.4-.35,5.12,5.12,0,0,0-.34-.44,1.13,1.13,0,0,1-.25-.5,1,1,0,0,1,0-.55.77.77,0,0,1-.22-.22h0a3.88,3.88,0,0,0-3.09-1.5,3.9,3.9,0,0,0-3.09,1.5l-.17.22a4,4,0,0,0-.66,2.18,3.78,3.78,0,0,0,.57,2,.81.81,0,0,1,.08.59.79.79,0,0,1-.35.47.77.77,0,0,1-.59.09.72.72,0,0,1-.48-.34,5.42,5.42,0,0,1-.78-3.31A5.44,5.44,0,0,1,9.41,27a.77.77,0,0,1-.61-.92.74.74,0,0,1,.34-.49.76.76,0,0,1,.59-.12,3.42,3.42,0,0,0,.79.08,3.92,3.92,0,0,0,3.09-1.49c.06-.08.11-.16.17-.23a3.91,3.91,0,0,0-3.59-6.07A3.89,3.89,0,0,0,7.62,19a.8.8,0,0,1-.54.25.78.78,0,0,1-.57-.2.79.79,0,0,1-.26-.54A.77.77,0,0,1,6.46,18a5.38,5.38,0,0,1,2.86-1.66A5.44,5.44,0,0,1,8,13.39a.74.74,0,0,1,.16-.57.8.8,0,0,1,.52-.29.77.77,0,0,1,.87.67,3.92,3.92,0,0,0,6.74,2.17,3.86,3.86,0,0,0,1.07-2.66v0a3.89,3.89,0,0,0-2.24-3.52A.94.94,0,0,1,14.86,9a1,1,0,0,1-.16-.26.8.8,0,0,1,0-.31.73.73,0,0,1,.07-.29.92.92,0,0,1,.19-.25.61.61,0,0,1,.26-.15.79.79,0,0,1,.3-.05.84.84,0,0,1,.3.08,5.5,5.5,0,0,1,2.36,2.12,5.55,5.55,0,0,1,2.45-2.17,1,1,0,0,1,.3-.07.8.8,0,0,1,.3.06.71.71,0,0,1,.26.16A1.08,1.08,0,0,1,21.63,8.1ZM18.14,20.51a1.07,1.07,0,0,0,.46-.08,1.24,1.24,0,0,0,.39-.25,1.15,1.15,0,0,0,.35-.84,1.13,1.13,0,0,0-.09-.45A1.16,1.16,0,0,0,19,18.5a1.18,1.18,0,0,0-.85-.33,1.17,1.17,0,1,0,0,2.34Z"/><path class="cls-3" d="M59.26,32.82a13.14,13.14,0,0,1-3.37-.43,10.55,10.55,0,0,1-3-1.3,7.45,7.45,0,0,1-2.24-2.16,6.56,6.56,0,0,1-1-3h4.78a3.75,3.75,0,0,0,.92,1.78,4.3,4.3,0,0,0,1.76,1.1,7.29,7.29,0,0,0,2.48.39,6.87,6.87,0,0,0,2.09-.32,3.88,3.88,0,0,0,1.62-1,2.33,2.33,0,0,0,.62-1.65A2,2,0,0,0,63,24.44a6.68,6.68,0,0,0-2.35-1l-4.34-.95a10.66,10.66,0,0,1-3.22-1.18A5.86,5.86,0,0,1,51,19.24a6.46,6.46,0,0,1-.74-3.19,6,6,0,0,1,1.19-3.73,7.66,7.66,0,0,1,3.24-2.4,12.2,12.2,0,0,1,4.63-.84,11.3,11.3,0,0,1,4.88.94,7.12,7.12,0,0,1,3.05,2.53,6.26,6.26,0,0,1,1.08,3.53H63.66a3.47,3.47,0,0,0-.73-1.92,3.36,3.36,0,0,0-1.57-1.05,6.28,6.28,0,0,0-2.16-.34,4.53,4.53,0,0,0-3.06.85,2.57,2.57,0,0,0-1,2,2.21,2.21,0,0,0,.72,1.71,5.28,5.28,0,0,0,2.36,1l4,.86a9.63,9.63,0,0,1,3.63,1.38,5.67,5.67,0,0,1,2,2.25,6.89,6.89,0,0,1,.64,3,6,6,0,0,1-1.2,3.69,7.78,7.78,0,0,1-3.28,2.48A12.18,12.18,0,0,1,59.26,32.82Zm13-.32V9.36H88l0,3.91h-11v5.81h9.55V22.9H76.94v9.6Zm19.14,0V9.36H96l10.56,15.32V9.36h4.67V32.5H107L96,16.58V32.5Z"/><path class="cls-1" d="M123.26,32.5V9.36H138v3H126.75v7.15h10v2.91h-10V32.5Zm24.32.32a8,8,0,0,1-4.05-1,6.84,6.84,0,0,1-2.69-2.91,10.16,10.16,0,0,1-1-4.61,10.78,10.78,0,0,1,.91-4.56,7,7,0,0,1,2.63-3,8.57,8.57,0,0,1,8.22-.06,6.74,6.74,0,0,1,2.66,3,10.6,10.6,0,0,1,.94,4.69,10.49,10.49,0,0,1-.88,4.43,6.86,6.86,0,0,1-2.59,3A7.74,7.74,0,0,1,147.58,32.82Zm0-2.64a3.74,3.74,0,0,0,2.36-.74,4.57,4.57,0,0,0,1.43-2.09,9.42,9.42,0,0,0,.48-3.14,9.68,9.68,0,0,0-.44-3,4.37,4.37,0,0,0-1.36-2.16,3.65,3.65,0,0,0-2.47-.8,3.88,3.88,0,0,0-2.4.74,4.14,4.14,0,0,0-1.44,2.06,9.06,9.06,0,0,0-.49,3.15,9.75,9.75,0,0,0,.44,3,4.58,4.58,0,0,0,1.37,2.17A3.73,3.73,0,0,0,147.6,30.18Zm16.92,2.64a8.12,8.12,0,0,1-2.38-.37,6.18,6.18,0,0,1-2-1.05,5.14,5.14,0,0,1-1.92-4.16V16h3.44V26.87a3.24,3.24,0,0,0,.93,2.41,3.8,3.8,0,0,0,2.8.93,4,4,0,0,0,2.72-.88,3.26,3.26,0,0,0,1-2.61V16h3.4V32.5h-2.65l-.39-3.2a4.18,4.18,0,0,1-1,2.08,4.29,4.29,0,0,1-1.76,1.12A6.52,6.52,0,0,1,164.52,32.82Zm12.35-.32V16h3.34v2.38a5.2,5.2,0,0,1,1.07-1.26,5.28,5.28,0,0,1,1.68-1,7.17,7.17,0,0,1,5.19.25,4.84,4.84,0,0,1,2.12,1.92,6.29,6.29,0,0,1,.8,3.36V32.5h-3.42V22a3.39,3.39,0,0,0-1-2.64,3.47,3.47,0,0,0-2.45-.86,5.62,5.62,0,0,0-1.92.33,3.35,3.35,0,0,0-1.47,1,2.55,2.55,0,0,0-.56,1.69V32.5Zm24.21.32a6.39,6.39,0,0,1-5.14-2.22q-1.87-2.25-1.87-6.45a12.18,12.18,0,0,1,.75-4.48,6.48,6.48,0,0,1,2.26-3,6.25,6.25,0,0,1,3.71-1.05,6.77,6.77,0,0,1,2,.27,5.9,5.9,0,0,1,1.54.7,6.05,6.05,0,0,1,1.1.93,4.45,4.45,0,0,1,.67.93V8.72h3.46V32.5H207l-.38-3.39a6.66,6.66,0,0,1-.54,1.18,4.84,4.84,0,0,1-1,1.22,4.67,4.67,0,0,1-1.6.94A6.61,6.61,0,0,1,201.08,32.82Zm.65-2.58a3.8,3.8,0,0,0,3.33-1.44,8.52,8.52,0,0,0,1-4.76,10,10,0,0,0-.46-3.17,3.67,3.67,0,0,0-1.38-1.95,4,4,0,0,0-2.44-.68,4,4,0,0,0-3.12,1.38,6.62,6.62,0,0,0-1.2,4.42,8.19,8.19,0,0,0,1.08,4.6A3.62,3.62,0,0,0,201.73,30.24Zm16.68,2.58a6.63,6.63,0,0,1-2.85-.58,4.5,4.5,0,0,1-1.94-1.66,4.73,4.73,0,0,1-.7-2.62,4.72,4.72,0,0,1,1.93-4.12q2-1.35,6.25-1.44l2.72-.08v-1.2a3,3,0,0,0-.85-2.24,3.65,3.65,0,0,0-2.63-.8,4.62,4.62,0,0,0-2.35.61,3,3,0,0,0-1.36,2h-3a5,5,0,0,1,1-2.77A5.3,5.3,0,0,1,217,16.21a10,10,0,0,1,3.52-.57,9.46,9.46,0,0,1,3.73.62,4.4,4.4,0,0,1,2.16,1.79,5.45,5.45,0,0,1,.72,2.88V32.5H224.2l-.26-3a5.56,5.56,0,0,1-2.35,2.64A7,7,0,0,1,218.41,32.82Zm1.07-2.38a4.42,4.42,0,0,0,1.55-.28,5.19,5.19,0,0,0,1.39-.76,4,4,0,0,0,1-1.11,2.47,2.47,0,0,0,.41-1.25V24.31l-2.25.05a11,11,0,0,0-2.91.35,3.76,3.76,0,0,0-1.82,1,2.7,2.7,0,0,0-.63,1.87,2.54,2.54,0,0,0,.92,2.08A3.67,3.67,0,0,0,219.48,30.44Zm17.2,2.17a6.59,6.59,0,0,1-2.84-.49,2.8,2.8,0,0,1-1.41-1.43,5.73,5.73,0,0,1-.4-2.27v-10h-2.69V16h2.8l.83-4.87h2.5v4.85h3.71v2.48h-3.71v9.87a3.44,3.44,0,0,0,.16,1.2.85.85,0,0,0,.58.48,4.81,4.81,0,0,0,1.12.1h1.92v2.22a4.25,4.25,0,0,1-.94.23A12,12,0,0,1,236.68,32.61Zm5.94-.11V16h3.3V32.5Zm-.08-19.74V9.38H246v3.38Zm14.4,20.06a8,8,0,0,1-4.05-1,6.84,6.84,0,0,1-2.69-2.91,10.16,10.16,0,0,1-1-4.61,10.78,10.78,0,0,1,.91-4.56,7,7,0,0,1,2.63-3,8.57,8.57,0,0,1,8.22-.06,6.74,6.74,0,0,1,2.66,3,10.6,10.6,0,0,1,.94,4.69,10.49,10.49,0,0,1-.88,4.43,6.86,6.86,0,0,1-2.59,3A7.74,7.74,0,0,1,256.94,32.82Zm0-2.64a3.75,3.75,0,0,0,2.37-.74,4.57,4.57,0,0,0,1.43-2.09,9.42,9.42,0,0,0,.48-3.14,9.68,9.68,0,0,0-.44-3,4.37,4.37,0,0,0-1.36-2.16,3.66,3.66,0,0,0-2.48-.8,3.88,3.88,0,0,0-2.4.74,4.27,4.27,0,0,0-1.44,2.06,9.32,9.32,0,0,0-.48,3.15,9.75,9.75,0,0,0,.44,3,4.58,4.58,0,0,0,1.37,2.17A3.72,3.72,0,0,0,257,30.18Zm10.91,2.32V16h3.34v2.38A5.27,5.27,0,0,1,274,16.12a7.14,7.14,0,0,1,5.18.25,4.81,4.81,0,0,1,2.13,1.92,6.38,6.38,0,0,1,.8,3.36V32.5h-3.43V22a3.35,3.35,0,0,0-1-2.64,3.43,3.43,0,0,0-2.44-.86,5.57,5.57,0,0,0-1.92.33,3.35,3.35,0,0,0-1.47,1,2.5,2.5,0,0,0-.56,1.69V32.5Z"/></g></g></svg>