<svg width="285" height="42" viewBox="0 0 285 42" fill="none" xmlns="http://www.w3.org/2000/svg">
<circle cx="20.5" cy="20.8281" r="20.5" fill="#EFEEF5"/>
<path fill-rule="evenodd" clip-rule="evenodd" d="M21.6273 8.43298C21.6696 8.52655 21.693 8.62752 21.6962 8.73011C21.6993 8.83269 21.6821 8.93489 21.6455 9.03084C21.6089 9.1268 21.5538 9.21464 21.4831 9.28934C21.4124 9.36404 21.3276 9.42413 21.2336 9.46618C20.5467 9.77404 19.9634 10.2724 19.5534 10.9018C19.1434 11.5311 18.9241 12.2647 18.9218 13.0148V13.0422C18.9269 14.0391 19.3146 14.9963 20.0056 15.7176C20.6966 16.439 21.6384 16.8698 22.6381 16.9218C23.6378 16.9739 24.6197 16.6431 25.3824 15.9974C26.1451 15.3518 26.6309 14.44 26.7403 13.449C26.7625 13.243 26.8659 13.0541 27.0279 12.9239C27.1899 12.7938 27.3972 12.7331 27.6041 12.7552C27.8111 12.7772 28.0007 12.8802 28.1314 13.0416C28.2621 13.2029 28.323 13.4093 28.3009 13.6154C28.1804 14.739 27.7117 15.7975 26.9599 16.6439C28.1167 16.9042 29.1578 17.5305 29.9273 18.4292C29.9943 18.5072 30.0451 18.5975 30.077 18.6951C30.1089 18.7927 30.1211 18.8955 30.1131 18.9978C30.105 19.1001 30.0768 19.1998 30.0301 19.2913C29.9833 19.3827 29.919 19.4641 29.8407 19.5307C29.7623 19.5974 29.6716 19.648 29.5736 19.6798C29.4757 19.7115 29.3724 19.7237 29.2697 19.7157C29.1669 19.7077 29.0668 19.6796 28.975 19.6331C28.8832 19.5865 28.8015 19.5224 28.7345 19.4444C28.0854 18.684 27.1686 18.2 26.1723 18.0917C25.176 17.9835 24.1759 18.2592 23.3774 18.8624C22.579 19.4656 22.0427 20.3503 21.8788 21.3349C21.7149 22.3195 21.9358 23.3292 22.4962 24.1567L22.5017 24.1629C22.5875 24.2742 22.6417 24.4063 22.6585 24.5456C22.9197 24.5784 23.169 24.7041 23.3549 24.9173C23.5337 25.1235 23.6963 25.3336 23.8427 25.5476C24.1273 25.9615 24.0897 26.4988 23.787 26.8682C24.0217 26.8631 24.252 26.9325 24.4445 27.0665C24.6369 27.2004 24.7816 27.3919 24.8574 27.6132C25.0221 28.0919 25.1492 28.5597 25.2574 28.9846C25.3085 29.1827 25.3031 29.3912 25.2419 29.5865C25.1807 29.7819 25.066 29.9563 24.9108 30.0904C25.2817 30.1435 25.6165 30.3817 25.7742 30.7495C25.9192 31.0877 26.0581 31.2524 26.1867 31.343C26.3937 31.4883 26.5348 31.6913 26.6046 31.9147C26.7795 31.6851 27.0446 31.5242 27.3551 31.4867C27.5224 31.4669 27.7104 31.4347 27.919 31.3899C28.2374 31.3204 28.5534 31.3954 28.7988 31.5703C28.8846 31.4485 29.0035 31.3537 29.1415 31.297L29.3564 31.2071C29.5534 31.1143 29.7295 30.9827 29.8742 30.8203C30.0188 30.6579 30.1289 30.4681 30.1979 30.2622C30.3539 29.7936 30.3406 29.1142 29.8905 28.245C29.841 28.1537 29.8102 28.0534 29.8001 27.9502C29.7899 27.8469 29.8005 27.7426 29.8313 27.6435C29.8621 27.5443 29.9124 27.4523 29.9793 27.3727C30.0462 27.2931 30.1283 27.2276 30.2209 27.18C30.3135 27.1324 30.4147 27.1037 30.5186 27.0955C30.6225 27.0873 30.727 27.0998 30.826 27.1323C30.9249 27.1648 31.0164 27.2166 31.0951 27.2847C31.1737 27.3528 31.2379 27.4358 31.284 27.5289C31.6039 28.1458 31.7867 28.7518 31.8408 29.3266C32.4247 28.6248 32.8949 27.8364 33.2343 26.99C33.2732 26.895 33.3305 26.8085 33.4029 26.7355C33.4753 26.6626 33.5615 26.6045 33.6564 26.5647C33.7514 26.5249 33.8533 26.5041 33.9563 26.5035C34.0594 26.5029 34.1615 26.5225 34.2569 26.5613C34.3523 26.6 34.4391 26.657 34.5124 26.7292C34.5857 26.8013 34.644 26.8871 34.684 26.9816C34.7239 27.0762 34.7448 27.1777 34.7454 27.2803C34.746 27.3829 34.7263 27.4846 34.6874 27.5796C34.1965 28.7784 33.5864 29.696 32.999 30.3809C33.381 30.4254 33.7832 30.5191 34.2177 30.6699C34.4142 30.7377 34.5757 30.8805 34.6665 31.0669C34.7573 31.2532 34.7701 31.4679 34.7019 31.6636C34.6338 31.8593 34.4904 32.0201 34.3033 32.1105C34.1161 32.201 33.9006 32.2137 33.704 32.1459C32.9238 31.8756 32.3693 31.8647 31.829 31.9772C31.3256 32.081 30.8307 32.2864 30.1398 32.5746L29.9932 32.6355C29.9028 32.6779 29.8104 32.7159 29.7164 32.7495C29.5572 32.8089 29.383 32.8152 29.22 32.7675C29.1655 32.9598 29.0595 33.1337 28.9133 33.2706C28.7672 33.4075 28.5864 33.5022 28.3903 33.5445C28.1221 33.6029 27.8649 33.6468 27.6186 33.6765C27.3618 33.7075 27.1021 33.6478 26.8849 33.5078C26.6677 33.3679 26.5066 33.1564 26.4298 32.9104C26.2565 33.1387 26.0007 33.2908 25.7167 33.3345C25.4328 33.3782 25.1429 33.3102 24.9084 33.1447C24.3226 32.7323 23.9729 32.1646 23.7376 31.6164C23.645 31.4017 23.6234 31.1633 23.6758 30.9356C23.7282 30.7079 23.852 30.5027 24.0293 30.3497C23.8121 30.3193 23.6089 30.2252 23.4455 30.0795C23.2821 29.9337 23.166 29.7429 23.1118 29.5312C23.0117 29.1258 22.8952 28.7246 22.7628 28.3286C22.7016 28.1512 22.6869 27.9611 22.7201 27.7765C22.7533 27.5918 22.8333 27.4187 22.9526 27.2735C22.7686 27.2774 22.5865 27.2356 22.4229 27.1517C22.2592 27.0678 22.1192 26.9446 22.0155 26.7932C21.9124 26.6429 21.8006 26.4987 21.6806 26.3613C21.5562 26.2185 21.4708 26.0463 21.4326 25.8611C21.3944 25.6759 21.4047 25.484 21.4626 25.3039C21.3729 25.2478 21.2956 25.1743 21.2352 25.0876L21.2274 25.0743C20.8609 24.6067 20.3921 24.2285 19.8566 23.9687C19.3212 23.7088 18.7332 23.5742 18.1376 23.5749C16.8829 23.5749 15.7662 24.1606 15.0478 25.0743C14.9946 25.1512 14.9394 25.2267 14.8824 25.3008C14.4477 25.945 14.2156 26.7035 14.2158 27.4797C14.2158 28.2239 14.4244 28.9166 14.7859 29.5078C14.8899 29.6845 14.92 29.8949 14.8697 30.0935C14.8195 30.2921 14.6928 30.4631 14.5172 30.5697C14.3415 30.6762 14.1308 30.7097 13.9305 30.663C13.7302 30.6163 13.5564 30.4931 13.4465 30.32C12.8391 29.3283 12.5662 28.1691 12.6678 27.0119C11.6395 27.4446 10.5035 27.5562 9.41017 27.3321C9.20645 27.2903 9.02772 27.1697 8.91331 26.9967C8.79889 26.8238 8.75815 26.6126 8.80006 26.4098C8.84197 26.2069 8.96309 26.0289 9.13678 25.9149C9.31046 25.801 9.52249 25.7604 9.72621 25.8022C9.98343 25.8553 10.249 25.8821 10.523 25.8826C11.7777 25.8826 12.8944 25.2969 13.6127 24.3832C13.6661 24.3056 13.7212 24.2301 13.7782 24.1567C14.3314 23.3378 14.5527 22.3406 14.3975 21.3657C14.2424 20.3909 13.7222 19.5107 12.9418 18.9023C12.1613 18.2939 11.1785 18.0024 10.1909 18.0865C9.20342 18.1706 8.2845 18.6239 7.61905 19.3554C7.47918 19.5088 7.28386 19.6005 7.07605 19.6105C6.86825 19.6204 6.66498 19.5478 6.51097 19.4085C6.35696 19.2692 6.26481 19.0747 6.25481 18.8678C6.24481 18.6608 6.31777 18.4584 6.45764 18.305C7.21607 17.4721 8.21395 16.8923 9.31528 16.6447C8.58842 15.8245 8.12538 14.8059 7.98606 13.7208C7.96297 13.5168 8.02147 13.312 8.14889 13.1506C8.27631 12.9893 8.4624 12.8844 8.6669 12.8586C8.8714 12.8328 9.07787 12.8883 9.24163 13.013C9.40538 13.1376 9.51326 13.3215 9.54192 13.5248C9.67039 14.5066 10.1685 15.4033 10.9356 16.0332C11.7027 16.6632 12.6814 16.9795 13.6737 16.9182C14.6661 16.8569 15.598 16.4225 16.281 15.7029C16.964 14.9834 17.347 14.0323 17.3526 13.0422V13.0148C17.3503 12.277 17.138 11.5549 16.7405 10.9323C16.343 10.3096 15.7765 9.81184 15.1066 9.49664C15.0135 9.45275 14.93 9.39102 14.8609 9.31499C14.7917 9.23896 14.7383 9.15011 14.7037 9.05351C14.669 8.95692 14.6538 8.85447 14.6589 8.75202C14.664 8.64957 14.6893 8.54912 14.7334 8.45641C14.7774 8.3637 14.8394 8.28054 14.9158 8.21169C14.9921 8.14283 15.0813 8.08962 15.1783 8.0551C15.2753 8.02059 15.3782 8.00543 15.4811 8.0105C15.584 8.01558 15.6848 8.04078 15.7779 8.08468C16.7573 8.54711 17.578 9.28678 18.1376 10.2112C18.715 9.25703 19.5703 8.50036 20.5898 8.04172C20.6837 7.99954 20.7851 7.97619 20.888 7.97303C20.991 7.96986 21.0936 7.98693 21.19 8.02327C21.2863 8.0596 21.3745 8.11449 21.4496 8.18479C21.5246 8.25509 21.585 8.33943 21.6273 8.43298ZM18.1376 20.84C18.2946 20.844 18.4508 20.8167 18.597 20.7597C18.7432 20.7027 18.8765 20.617 18.9889 20.5079C19.1014 20.3988 19.1908 20.2683 19.2518 20.1242C19.3128 19.9801 19.3443 19.8253 19.3443 19.669C19.3443 19.5126 19.3128 19.3578 19.2518 19.2137C19.1908 19.0696 19.1014 18.9391 18.9889 18.83C18.8765 18.7209 18.7432 18.6352 18.597 18.5782C18.4508 18.5212 18.2946 18.4939 18.1376 18.4979C17.8256 18.4979 17.5264 18.6213 17.3058 18.841C17.0852 19.0607 16.9613 19.3587 16.9613 19.6693C16.9613 19.98 17.0852 20.278 17.3058 20.4977C17.5264 20.7174 17.8256 20.84 18.1376 20.84Z" fill="#626DFB"/>
<path d="M59.264 33.1481C58.112 33.1481 56.9867 33.0041 55.888 32.7161C54.7893 32.4281 53.7867 31.9961 52.88 31.4201C51.9733 30.8441 51.2267 30.1241 50.64 29.2601C50.064 28.3961 49.7173 27.3828 49.6 26.2201H54.384C54.544 26.9241 54.848 27.5161 55.296 27.9961C55.7547 28.4761 56.3413 28.8441 57.056 29.1001C57.7813 29.3561 58.608 29.4841 59.536 29.4841C60.272 29.4841 60.9707 29.3775 61.632 29.1641C62.2933 28.9508 62.832 28.6255 63.248 28.1881C63.664 27.7508 63.872 27.2015 63.872 26.5401C63.872 25.7508 63.584 25.1588 63.008 24.7641C62.432 24.3588 61.648 24.0388 60.656 23.8041L56.32 22.8601C55.0933 22.6041 54.0213 22.2095 53.104 21.6761C52.1973 21.1321 51.4987 20.4281 51.008 19.5641C50.5173 18.6895 50.272 17.6281 50.272 16.3801C50.272 14.9401 50.6667 13.6975 51.456 12.6521C52.256 11.6068 53.3387 10.8068 54.704 10.2521C56.08 9.68679 57.6213 9.40412 59.328 9.40412C61.2587 9.40412 62.8853 9.71879 64.208 10.3481C65.5413 10.9668 66.56 11.8095 67.264 12.8761C67.968 13.9321 68.3253 15.1108 68.336 16.4121H63.664C63.5787 15.6121 63.3333 14.9721 62.928 14.4921C62.5227 14.0015 62 13.6495 61.36 13.4361C60.7307 13.2121 60.0107 13.1001 59.2 13.1001C57.8027 13.1001 56.784 13.3828 56.144 13.9481C55.504 14.5135 55.184 15.1695 55.184 15.9161C55.184 16.6201 55.424 17.1908 55.904 17.6281C56.3947 18.0548 57.1787 18.3801 58.256 18.6041L62.272 19.4681C63.7653 19.7561 64.976 20.2148 65.904 20.8441C66.832 21.4628 67.5093 22.2148 67.936 23.1001C68.3627 23.9855 68.576 24.9775 68.576 26.0761C68.576 27.4735 68.176 28.7055 67.376 29.7721C66.5867 30.8281 65.4933 31.6548 64.096 32.2521C62.6987 32.8495 61.088 33.1481 59.264 33.1481ZM72.237 32.8281V9.69212H87.981L87.965 13.5961H76.941V19.4041H86.493V23.2281H76.941V32.8281H72.237ZM91.382 32.8281V9.69212H96.006L106.566 25.0041V9.69212H111.238V32.8281H107.03L96.038 16.9081V32.8281H91.382ZM123.258 32.8281V9.69212H138.042L138.026 12.6361H126.746V19.7881H136.778V22.7001H126.746V32.8281H123.258ZM147.579 33.1481C146.032 33.1481 144.683 32.8175 143.531 32.1561C142.379 31.4841 141.483 30.5135 140.843 29.2441C140.203 27.9748 139.883 26.4388 139.883 24.6361C139.883 22.8975 140.187 21.3775 140.795 20.0761C141.403 18.7748 142.278 17.7668 143.419 17.0521C144.571 16.3268 145.963 15.9641 147.595 15.9641C149.152 15.9641 150.502 16.3055 151.643 16.9881C152.784 17.6601 153.67 18.6468 154.299 19.9481C154.928 21.2388 155.243 22.8015 155.243 24.6361C155.243 26.3108 154.95 27.7881 154.363 29.0681C153.776 30.3481 152.912 31.3508 151.771 32.0761C150.64 32.7908 149.243 33.1481 147.579 33.1481ZM147.595 30.5081C148.544 30.5081 149.334 30.2628 149.963 29.7721C150.592 29.2708 151.067 28.5721 151.387 27.6761C151.707 26.7695 151.867 25.7241 151.867 24.5401C151.867 23.4415 151.723 22.4441 151.435 21.5481C151.158 20.6415 150.704 19.9215 150.075 19.3881C149.456 18.8548 148.63 18.5881 147.595 18.5881C146.646 18.5881 145.846 18.8335 145.195 19.3241C144.555 19.8041 144.075 20.4921 143.755 21.3881C143.435 22.2735 143.275 23.3241 143.275 24.5401C143.275 25.6175 143.419 26.6095 143.707 27.5161C143.995 28.4228 144.454 29.1481 145.083 29.6921C145.723 30.2361 146.56 30.5081 147.595 30.5081ZM164.52 33.1481C163.688 33.1375 162.893 33.0148 162.136 32.7801C161.379 32.5455 160.701 32.1935 160.104 31.7241C159.517 31.2548 159.048 30.6735 158.696 29.9801C158.355 29.2868 158.184 28.4815 158.184 27.5641V16.2841H161.624V27.1961C161.624 28.1881 161.933 28.9935 162.552 29.6121C163.171 30.2308 164.104 30.5401 165.352 30.5401C166.483 30.5401 167.389 30.2468 168.072 29.6601C168.755 29.0628 169.096 28.1935 169.096 27.0521V16.2841H172.504V32.8281H169.848L169.464 29.6281C169.272 30.4921 168.925 31.1855 168.424 31.7081C167.933 32.2201 167.347 32.5935 166.664 32.8281C165.992 33.0521 165.277 33.1588 164.52 33.1481ZM176.866 32.8281V16.2841H180.21V18.6681C180.477 18.2201 180.834 17.7988 181.282 17.4041C181.741 17.0095 182.301 16.6895 182.962 16.4441C183.634 16.1988 184.408 16.0761 185.282 16.0761C186.317 16.0761 187.272 16.2841 188.146 16.7001C189.032 17.1055 189.741 17.7455 190.274 18.6201C190.808 19.4841 191.074 20.6041 191.074 21.9801V32.8281H187.65V22.3481C187.65 21.1641 187.33 20.2841 186.69 19.7081C186.061 19.1321 185.245 18.8441 184.242 18.8441C183.57 18.8441 182.93 18.9561 182.322 19.1801C181.714 19.4041 181.224 19.7455 180.85 20.2041C180.477 20.6521 180.29 21.2175 180.29 21.9001V32.8281H176.866ZM201.076 33.1481C198.911 33.1481 197.199 32.4068 195.94 30.9241C194.692 29.4308 194.068 27.2815 194.068 24.4761C194.068 22.7588 194.319 21.2655 194.82 19.9961C195.332 18.7161 196.084 17.7241 197.076 17.0201C198.068 16.3161 199.305 15.9641 200.788 15.9641C201.524 15.9641 202.185 16.0548 202.772 16.2361C203.359 16.4175 203.871 16.6521 204.308 16.9401C204.745 17.2281 205.113 17.5375 205.412 17.8681C205.711 18.1988 205.935 18.5081 206.084 18.7961V9.05212H209.54V32.8281H206.964L206.58 29.4361C206.463 29.7988 206.281 30.1935 206.036 30.6201C205.801 31.0468 205.471 31.4521 205.044 31.8361C204.628 32.2201 204.095 32.5348 203.444 32.7801C202.793 33.0255 202.004 33.1481 201.076 33.1481ZM201.732 30.5721C203.268 30.5721 204.377 30.0921 205.06 29.1321C205.743 28.1615 206.084 26.5721 206.084 24.3641C206.073 23.1161 205.919 22.0601 205.62 21.1961C205.332 20.3321 204.873 19.6815 204.244 19.2441C203.625 18.7961 202.809 18.5721 201.796 18.5721C200.527 18.5721 199.487 19.0308 198.676 19.9481C197.876 20.8548 197.476 22.3268 197.476 24.3641C197.476 26.3695 197.839 27.9055 198.564 28.9721C199.3 30.0388 200.356 30.5721 201.732 30.5721ZM218.407 33.1481C217.341 33.1481 216.391 32.9561 215.559 32.5721C214.738 32.1881 214.093 31.6335 213.623 30.9081C213.154 30.1828 212.919 29.3081 212.919 28.2841C212.919 26.4495 213.565 25.0788 214.855 24.1721C216.157 23.2655 218.237 22.7855 221.095 22.7321L223.815 22.6521V21.4521C223.815 20.5028 223.533 19.7561 222.967 19.2121C222.402 18.6681 221.527 18.4015 220.343 18.4121C219.469 18.4121 218.685 18.6148 217.991 19.0201C217.298 19.4255 216.845 20.0921 216.631 21.0201H213.671C213.735 19.9215 214.05 18.9988 214.615 18.2521C215.191 17.4948 215.981 16.9241 216.983 16.5401C217.986 16.1561 219.159 15.9641 220.503 15.9641C222.018 15.9641 223.261 16.1721 224.231 16.5881C225.202 16.9935 225.922 17.5908 226.391 18.3801C226.871 19.1695 227.111 20.1295 227.111 21.2601V32.8281H224.199L223.943 29.7881C223.325 31.0575 222.541 31.9375 221.591 32.4281C220.642 32.9081 219.581 33.1481 218.407 33.1481ZM219.479 30.7641C220.002 30.7641 220.519 30.6735 221.031 30.4921C221.543 30.3001 222.007 30.0441 222.423 29.7241C222.839 29.3935 223.17 29.0255 223.415 28.6201C223.671 28.2148 223.805 27.7988 223.815 27.3721V24.6361L221.575 24.6841C220.434 24.6948 219.463 24.8121 218.663 25.0361C217.874 25.2601 217.266 25.6068 216.839 26.0761C216.423 26.5455 216.215 27.1695 216.215 27.9481C216.215 28.8335 216.519 29.5268 217.127 30.0281C217.746 30.5188 218.53 30.7641 219.479 30.7641ZM236.684 32.9401C235.458 32.9401 234.508 32.7748 233.836 32.4441C233.164 32.1135 232.695 31.6388 232.428 31.0201C232.162 30.3908 232.028 29.6335 232.028 28.7481V18.7481H229.34V16.2841H232.14L232.972 11.4201H235.468V16.2681H239.18V18.7481H235.468L235.484 28.6201C235.484 29.1641 235.538 29.5641 235.644 29.8201C235.762 30.0655 235.954 30.2255 236.22 30.3001C236.498 30.3641 236.871 30.3961 237.34 30.3961H239.26V32.6201C239.058 32.7055 238.743 32.7801 238.316 32.8441C237.9 32.9081 237.356 32.9401 236.684 32.9401ZM242.62 32.8281V16.2841H245.916V32.8281H242.62ZM242.54 13.0841V9.70812H245.98V13.0841H242.54ZM256.938 33.1481C255.391 33.1481 254.042 32.8175 252.89 32.1561C251.738 31.4841 250.842 30.5135 250.202 29.2441C249.562 27.9748 249.242 26.4388 249.242 24.6361C249.242 22.8975 249.546 21.3775 250.154 20.0761C250.762 18.7748 251.636 17.7668 252.778 17.0521C253.93 16.3268 255.322 15.9641 256.954 15.9641C258.511 15.9641 259.86 16.3055 261.002 16.9881C262.143 17.6601 263.028 18.6468 263.658 19.9481C264.287 21.2388 264.602 22.8015 264.602 24.6361C264.602 26.3108 264.308 27.7881 263.722 29.0681C263.135 30.3481 262.271 31.3508 261.13 32.0761C259.999 32.7908 258.602 33.1481 256.938 33.1481ZM256.954 30.5081C257.903 30.5081 258.692 30.2628 259.322 29.7721C259.951 29.2708 260.426 28.5721 260.746 27.6761C261.066 26.7695 261.226 25.7241 261.226 24.5401C261.226 23.4415 261.082 22.4441 260.794 21.5481C260.516 20.6415 260.063 19.9215 259.434 19.3881C258.815 18.8548 257.988 18.5881 256.954 18.5881C256.004 18.5881 255.204 18.8335 254.554 19.3241C253.914 19.8041 253.434 20.4921 253.114 21.3881C252.794 22.2735 252.634 23.3241 252.634 24.5401C252.634 25.6175 252.778 26.6095 253.066 27.5161C253.354 28.4228 253.812 29.1481 254.442 29.6921C255.082 30.2361 255.919 30.5081 256.954 30.5081ZM267.861 32.8281V16.2841H271.205V18.6681C271.472 18.2201 271.829 17.7988 272.277 17.4041C272.736 17.0095 273.296 16.6895 273.957 16.4441C274.629 16.1988 275.403 16.0761 276.277 16.0761C277.312 16.0761 278.267 16.2841 279.141 16.7001C280.027 17.1055 280.736 17.7455 281.269 18.6201C281.803 19.4841 282.069 20.6041 282.069 21.9801V32.8281H278.645V22.3481C278.645 21.1641 278.325 20.2841 277.685 19.7081C277.056 19.1321 276.24 18.8441 275.237 18.8441C274.565 18.8441 273.925 18.9561 273.317 19.1801C272.709 19.4041 272.219 19.7455 271.845 20.2041C271.472 20.6521 271.285 21.2175 271.285 21.9001V32.8281H267.861Z" fill="#EFEEF5"/>
</svg>
